<?xml version="1.0" encoding="UTF-8" standalone="no"?><!DOCTYPE svg PUBLIC "-//W3C//DTD SVG 1.1//EN" "http://www.w3.org/Graphics/SVG/1.1/DTD/svg11.dtd"><!-- Generated by graphviz version 2.40.1 (20161225.0304)
 --><!-- Title: G Pages: 1 --><svg xmlns="http://www.w3.org/2000/svg" xmlns:xlink="http://www.w3.org/1999/xlink" width="1584pt" height="1052pt" viewBox="0.00 0.00 1583.55 1052.00">
<g id="graph0" class="graph" transform="scale(1 1) rotate(0) translate(4 1048)">
<title>G</title>
<polygon fill="#ffffff" stroke="transparent" points="-4,4 -4,-1048 1579.5478,-1048 1579.5478,4 -4,4"/>
<!-- 0 -->
<g id="node1" class="node">
<title>0</title>
<ellipse fill="none" stroke="#000000" cx="1429.8274" cy="-1026" rx="34.2026" ry="18"/>
<text text-anchor="middle" x="1429.8274" y="-1021.8" font-family="Times,serif" font-size="14.00" fill="#000000">Initial</text>
</g>
<!-- 13 -->
<g id="node14" class="node">
<title>13</title>
<polygon fill="none" stroke="#000000" points="1521.9647,-972 1337.6902,-972 1337.6902,-936 1521.9647,-936 1521.9647,-972"/>
<text text-anchor="middle" x="1429.8274" y="-949.8" font-family="Times,serif" font-size="14.00" fill="#000000">OrderCreated&lt;OrderCreated&gt;</text>
</g>
<!-- 0&#45;&gt;13 -->
<g id="edge1" class="edge">
<title>0-&gt;13</title>
<path fill="none" stroke="#000000" d="M1429.8274,-1007.8314C1429.8274,-1000.131 1429.8274,-990.9743 1429.8274,-982.4166"/>
<polygon fill="#000000" stroke="#000000" points="1433.3275,-982.4132 1429.8274,-972.4133 1426.3275,-982.4133 1433.3275,-982.4132"/>
</g>
<!-- 1 -->
<g id="node2" class="node">
<title>1</title>
<ellipse fill="none" stroke="#000000" cx="1429.8274" cy="-882" rx="41.1277" ry="18"/>
<text text-anchor="middle" x="1429.8274" y="-877.8" font-family="Times,serif" font-size="14.00" fill="#000000">Created</text>
</g>
<!-- 16 -->
<g id="node17" class="node">
<title>16</title>
<polygon fill="none" stroke="#000000" points="1410.8143,-684 1160.8405,-684 1160.8405,-648 1410.8143,-648 1410.8143,-684"/>
<text text-anchor="middle" x="1285.8274" y="-661.8" font-family="Times,serif" font-size="14.00" fill="#000000">PaymentSucceeded&lt;PaymentSucceeded&gt;</text>
</g>
<!-- 1&#45;&gt;16 -->
<g id="edge2" class="edge">
<title>1-&gt;16</title>
<path fill="none" stroke="#000000" d="M1390.9532,-875.7861C1362.4207,-869.0742 1325.2241,-855.4016 1304.8274,-828 1275.713,-788.8866 1277.1681,-729.1002 1281.2416,-694.1454"/>
<polygon fill="#000000" stroke="#000000" points="1284.7228,-694.5164 1282.5589,-684.1449 1277.7828,-693.6021 1284.7228,-694.5164"/>
</g>
<!-- 17 -->
<g id="node18" class="node">
<title>17</title>
<polygon fill="none" stroke="#000000" points="1546.2468,-828 1313.408,-828 1313.408,-792 1546.2468,-792 1546.2468,-828"/>
<text text-anchor="middle" x="1429.8274" y="-805.8" font-family="Times,serif" font-size="14.00" fill="#000000">PaymentFailedEvent&lt;PaymentFailed&gt;</text>
</g>
<!-- 1&#45;&gt;17 -->
<g id="edge3" class="edge">
<title>1-&gt;17</title>
<path fill="none" stroke="#000000" d="M1429.8274,-863.8314C1429.8274,-856.131 1429.8274,-846.9743 1429.8274,-838.4166"/>
<polygon fill="#000000" stroke="#000000" points="1433.3275,-838.4132 1429.8274,-828.4133 1426.3275,-838.4133 1433.3275,-838.4132"/>
</g>
<!-- 18 -->
<g id="node19" class="node">
<title>18</title>
<polygon fill="none" stroke="#000000" points="1237.6695,-108 847.9854,-108 847.9854,-72 1237.6695,-72 1237.6695,-108"/>
<text text-anchor="middle" x="1042.8274" y="-85.8" font-family="Times,serif" font-size="14.00" fill="#000000">OrderPaymentTimeout.Received&lt;OrderPaymentTimeoutExpired&gt;</text>
</g>
<!-- 1&#45;&gt;18 -->
<g id="edge4" class="edge">
<title>1-&gt;18</title>
<path fill="none" stroke="#000000" d="M1468.002,-875.2402C1496.1633,-868.2385 1533.2015,-854.4423 1554.8274,-828 1580.709,-796.3543 1573.8274,-778.8816 1573.8274,-738 1573.8274,-738 1573.8274,-738 1573.8274,-234 1573.8274,-163.5627 1397.5822,-126.4904 1248.1678,-107.7178"/>
<polygon fill="#000000" stroke="#000000" points="1248.2668,-104.2036 1237.9135,-106.4526 1247.4096,-111.1509 1248.2668,-104.2036"/>
</g>
<!-- 2 -->
<g id="node3" class="node">
<title>2</title>
<ellipse fill="none" stroke="#000000" cx="1275.8274" cy="-594" rx="28.4088" ry="18"/>
<text text-anchor="middle" x="1275.8274" y="-589.8" font-family="Times,serif" font-size="14.00" fill="#000000">Paid</text>
</g>
<!-- 2&#45;&gt;18 -->
<g id="edge7" class="edge">
<title>2-&gt;18</title>
<path fill="none" stroke="#000000" d="M1301.617,-586.6608C1351.3886,-570.741 1455.8274,-528.0381 1455.8274,-450 1455.8274,-450 1455.8274,-450 1455.8274,-234 1455.8274,-173.1591 1294.0046,-132.0634 1172.9474,-109.8324"/>
<polygon fill="#000000" stroke="#000000" points="1173.3025,-106.3398 1162.8389,-108.0022 1172.0553,-113.2278 1173.3025,-106.3398"/>
</g>
<!-- 19 -->
<g id="node20" class="node">
<title>19</title>
<polygon fill="none" stroke="#000000" points="584.5426,-540 329.1123,-540 329.1123,-504 584.5426,-504 584.5426,-540"/>
<text text-anchor="middle" x="456.8274" y="-517.8" font-family="Times,serif" font-size="14.00" fill="#000000">ProductReservedEvent&lt;ProductReserved&gt;</text>
</g>
<!-- 2&#45;&gt;19 -->
<g id="edge5" class="edge">
<title>2-&gt;19</title>
<path fill="none" stroke="#000000" d="M1247.6356,-591.5216C1145.8952,-582.5774 793.2187,-551.5729 594.9402,-534.1418"/>
<polygon fill="#000000" stroke="#000000" points="595.0081,-530.6343 584.7399,-533.2451 594.395,-537.6074 595.0081,-530.6343"/>
</g>
<!-- 20 -->
<g id="node21" class="node">
<title>20</title>
<polygon fill="none" stroke="#000000" points="1427.8282,-396 1073.8267,-396 1073.8267,-360 1427.8282,-360 1427.8282,-396"/>
<text text-anchor="middle" x="1250.8274" y="-373.8" font-family="Times,serif" font-size="14.00" fill="#000000">FaultReserveProductCommand&lt;ReserveProductCommand&gt;</text>
</g>
<!-- 2&#45;&gt;20 -->
<g id="edge6" class="edge">
<title>2-&gt;20</title>
<path fill="none" stroke="#000000" d="M1273.7389,-575.9555C1269.3823,-538.3144 1259.2981,-451.1867 1254.0826,-406.1246"/>
<polygon fill="#000000" stroke="#000000" points="1257.5542,-405.6763 1252.9275,-396.1451 1250.6006,-406.4812 1257.5542,-405.6763"/>
</g>
<!-- 3 -->
<g id="node4" class="node">
<title>3</title>
<ellipse fill="none" stroke="#000000" cx="1042.8274" cy="-18" rx="49.7962" ry="18"/>
<text text-anchor="middle" x="1042.8274" y="-13.8" font-family="Times,serif" font-size="14.00" fill="#000000">Cancelled</text>
</g>
<!-- 3&#45;&gt;18 -->
<g id="edge8" class="edge">
<title>3-&gt;18</title>
<path fill="none" stroke="#000000" d="M1048.7547,-35.9134C1049.5286,-43.6993 1049.7565,-53.01 1049.4385,-61.6941"/>
<polygon fill="#000000" stroke="#000000" points="1045.9357,-61.6254 1048.7798,-71.8314 1052.9209,-62.0794 1045.9357,-61.6254"/>
</g>
<!-- 4 -->
<g id="node5" class="node">
<title>4</title>
<ellipse fill="none" stroke="#000000" cx="1429.8274" cy="-738" rx="68.9371" ry="18"/>
<text text-anchor="middle" x="1429.8274" y="-733.8" font-family="Times,serif" font-size="14.00" fill="#000000">PaymentFailed</text>
</g>
<!-- 4&#45;&gt;16 -->
<g id="edge9" class="edge">
<title>4-&gt;16</title>
<path fill="none" stroke="#000000" d="M1397.8692,-722.0209C1378.2213,-712.197 1352.7404,-699.4565 1331.0438,-688.6082"/>
<polygon fill="#000000" stroke="#000000" points="1332.5145,-685.4305 1322.0049,-684.0888 1329.384,-691.6915 1332.5145,-685.4305"/>
</g>
<!-- 4&#45;&gt;17 -->
<g id="edge10" class="edge">
<title>4-&gt;17</title>
<path fill="none" stroke="#000000" d="M1435.8034,-756.4133C1436.5345,-764.0593 1436.7477,-773.1084 1436.4429,-781.5726"/>
<polygon fill="#000000" stroke="#000000" points="1432.9322,-781.6264 1435.7798,-791.8314 1439.9176,-782.078 1432.9322,-781.6264"/>
</g>
<!-- 4&#45;&gt;18 -->
<g id="edge11" class="edge">
<title>4-&gt;18</title>
<path fill="none" stroke="#000000" d="M1443.7145,-720.0452C1462.5374,-693.8615 1493.8274,-642.9707 1493.8274,-594 1493.8274,-594 1493.8274,-594 1493.8274,-234 1493.8274,-168.3951 1437.0474,-170.0299 1376.8274,-144 1346.441,-130.8656 1278.065,-118.8289 1211.0426,-109.4695"/>
<polygon fill="#000000" stroke="#000000" points="1211.1211,-105.9473 1200.7369,-108.0495 1210.1655,-112.8818 1211.1211,-105.9473"/>
</g>
<!-- 5 -->
<g id="node6" class="node">
<title>5</title>
<ellipse fill="none" stroke="#000000" cx="92.8274" cy="-450" rx="77.0062" ry="18"/>
<text text-anchor="middle" x="92.8274" y="-445.8" font-family="Times,serif" font-size="14.00" fill="#000000">ProductReserved</text>
</g>
<!-- 5&#45;&gt;18 -->
<g id="edge12" class="edge">
<title>5-&gt;18</title>
<path fill="none" stroke="#000000" d="M72.1793,-432.4084C61.653,-422.5679 49.3172,-409.5719 40.8274,-396 18.2332,-359.8806 7.8274,-348.6041 7.8274,-306 7.8274,-306 7.8274,-306 7.8274,-234 7.8274,-211.4431 -48.9589,-206.8626 144.8274,-144 208.7978,-123.2485 593.1814,-105.9765 837.8711,-96.8954"/>
<polygon fill="#000000" stroke="#000000" points="838.1007,-100.3894 847.9646,-96.5225 837.8422,-93.3942 838.1007,-100.3894"/>
</g>
<!-- 6 -->
<g id="node7" class="node">
<title>6</title>
<ellipse fill="none" stroke="#000000" cx="456.8274" cy="-450" rx="99.626" ry="18"/>
<text text-anchor="middle" x="456.8274" y="-445.8" font-family="Times,serif" font-size="14.00" fill="#000000">BookDelivery.Pending</text>
</g>
<!-- 14 -->
<g id="node15" class="node">
<title>14</title>
<polygon fill="none" stroke="#000000" points="383.3376,-396 74.3172,-396 74.3172,-360 383.3376,-360 383.3376,-396"/>
<text text-anchor="middle" x="228.8274" y="-373.8" font-family="Times,serif" font-size="14.00" fill="#000000">BookDelivery.Completed&lt;BookDeliveryResponse&gt;</text>
</g>
<!-- 6&#45;&gt;14 -->
<g id="edge13" class="edge">
<title>6-&gt;14</title>
<path fill="none" stroke="#000000" d="M407.0736,-434.2883C374.4966,-424.0008 331.5271,-410.4315 295.94,-399.1934"/>
<polygon fill="#000000" stroke="#000000" points="296.7029,-395.7641 286.1131,-396.0902 294.595,-402.4391 296.7029,-395.7641"/>
</g>
<!-- 15 -->
<g id="node16" class="node">
<title>15</title>
<polygon fill="none" stroke="#000000" points="682.339,-396 401.3158,-396 401.3158,-360 682.339,-360 682.339,-396"/>
<text text-anchor="middle" x="541.8274" y="-373.8" font-family="Times,serif" font-size="14.00" fill="#000000">BookDelivery.Faulted&lt;BookDeliveryRequest&gt;</text>
</g>
<!-- 6&#45;&gt;15 -->
<g id="edge14" class="edge">
<title>6-&gt;15</title>
<path fill="none" stroke="#000000" d="M477.8387,-432.2022C488.3839,-423.2698 501.3244,-412.3085 512.8023,-402.586"/>
<polygon fill="#000000" stroke="#000000" points="515.0992,-405.2273 520.4675,-396.0931 510.5748,-399.8859 515.0992,-405.2273"/>
</g>
<!-- 6&#45;&gt;18 -->
<g id="edge16" class="edge">
<title>6-&gt;18</title>
<path fill="none" stroke="#000000" d="M364.8918,-442.8761C255.9693,-433.588 86.4454,-416.1318 64.8274,-396 34.9097,-368.139 45.8274,-346.8816 45.8274,-306 45.8274,-306 45.8274,-306 45.8274,-234 45.8274,-154.7381 545.8074,-115.5219 837.64,-99.3829"/>
<polygon fill="#000000" stroke="#000000" points="838.1391,-102.8609 847.9324,-98.8185 837.7558,-95.8714 838.1391,-102.8609"/>
</g>
<!-- 23 -->
<g id="node24" class="node">
<title>23</title>
<polygon fill="none" stroke="#000000" points="1055.2072,-396 700.4476,-396 700.4476,-360 1055.2072,-360 1055.2072,-396"/>
<text text-anchor="middle" x="877.8274" y="-373.8" font-family="Times,serif" font-size="14.00" fill="#000000">BookDelivery.TimeoutExpired&lt;RequestTimeoutExpired`1&gt;</text>
</g>
<!-- 6&#45;&gt;23 -->
<g id="edge15" class="edge">
<title>6-&gt;23</title>
<path fill="none" stroke="#000000" d="M529.6794,-437.5408C593.7575,-426.582 688.1394,-410.4407 762.4735,-397.728"/>
<polygon fill="#000000" stroke="#000000" points="763.0932,-401.1729 772.36,-396.0372 761.9131,-394.2731 763.0932,-401.1729"/>
</g>
<!-- 7 -->
<g id="node8" class="node">
<title>7</title>
<ellipse fill="none" stroke="#000000" cx="1250.8274" cy="-234" rx="111.1731" ry="18"/>
<text text-anchor="middle" x="1250.8274" y="-229.8" font-family="Times,serif" font-size="14.00" fill="#000000">ProductReservationFailed</text>
</g>
<!-- 7&#45;&gt;18 -->
<g id="edge17" class="edge">
<title>7-&gt;18</title>
<path fill="none" stroke="#000000" d="M1227.1019,-216.4078C1202.1334,-198.0148 1161.5715,-168.4754 1125.8274,-144 1111.0269,-133.8655 1094.5026,-123.0214 1080.1186,-113.7298"/>
<polygon fill="#000000" stroke="#000000" points="1081.7767,-110.6347 1071.4736,-108.1653 1077.988,-116.5208 1081.7767,-110.6347"/>
</g>
<!-- 8 -->
<g id="node9" class="node">
<title>8</title>
<ellipse fill="none" stroke="#000000" cx="1005.8274" cy="-306" rx="94.3447" ry="18"/>
<text text-anchor="middle" x="1005.8274" y="-301.8" font-family="Times,serif" font-size="14.00" fill="#000000">MoneyRefundStarted</text>
</g>
<!-- 8&#45;&gt;18 -->
<g id="edge19" class="edge">
<title>8-&gt;18</title>
<path fill="none" stroke="#000000" d="M1049.1669,-290.0169C1065.9216,-281.462 1083.3213,-269.0888 1092.8274,-252 1117.4554,-207.7273 1086.3645,-149.7565 1063.346,-116.5203"/>
<polygon fill="#000000" stroke="#000000" points="1066.0796,-114.3259 1057.414,-108.2301 1060.3868,-118.3993 1066.0796,-114.3259"/>
</g>
<!-- 21 -->
<g id="node22" class="node">
<title>21</title>
<polygon fill="none" stroke="#000000" points="1083.7878,-252 863.867,-252 863.867,-216 1083.7878,-216 1083.7878,-252"/>
<text text-anchor="middle" x="973.8274" y="-229.8" font-family="Times,serif" font-size="14.00" fill="#000000">MoneyRefunded&lt;MoneyRefunded&gt;</text>
</g>
<!-- 8&#45;&gt;21 -->
<g id="edge18" class="edge">
<title>8-&gt;21</title>
<path fill="none" stroke="#000000" d="M997.7525,-287.8314C994.2172,-279.8771 989.9914,-270.369 986.0818,-261.5723"/>
<polygon fill="#000000" stroke="#000000" points="989.2709,-260.1299 982.0111,-252.4133 982.8742,-262.9729 989.2709,-260.1299"/>
</g>
<!-- 9 -->
<g id="node10" class="node">
<title>9</title>
<ellipse fill="none" stroke="#000000" cx="1007.8274" cy="-162" rx="37.7198" ry="18"/>
<text text-anchor="middle" x="1007.8274" y="-157.8" font-family="Times,serif" font-size="14.00" fill="#000000">Closed</text>
</g>
<!-- 9&#45;&gt;18 -->
<g id="edge20" class="edge">
<title>9-&gt;18</title>
<path fill="none" stroke="#000000" d="M1016.4791,-144.2022C1020.4455,-136.0428 1025.2349,-126.1904 1029.6364,-117.1358"/>
<polygon fill="#000000" stroke="#000000" points="1032.808,-118.617 1034.0322,-108.0931 1026.5124,-115.5566 1032.808,-118.617"/>
</g>
<!-- 10 -->
<g id="node11" class="node">
<title>10</title>
<ellipse fill="none" stroke="#000000" cx="529.8274" cy="-306" rx="74.7226" ry="18"/>
<text text-anchor="middle" x="529.8274" y="-301.8" font-family="Times,serif" font-size="14.00" fill="#000000">DeliveryBooked</text>
</g>
<!-- 10&#45;&gt;18 -->
<g id="edge22" class="edge">
<title>10-&gt;18</title>
<path fill="none" stroke="#000000" d="M529.7341,-287.8848C530.4722,-268.5206 534.1386,-237.6828 548.8274,-216 581.1828,-168.2388 602.9081,-164.511 656.8274,-144 692.236,-130.5305 770.5164,-118.513 847.3908,-109.2543"/>
<polygon fill="#000000" stroke="#000000" points="848.2163,-112.6809 857.7328,-108.024 847.3893,-105.7299 848.2163,-112.6809"/>
</g>
<!-- 22 -->
<g id="node23" class="node">
<title>22</title>
<polygon fill="none" stroke="#000000" points="807.7834,-252 557.8714,-252 557.8714,-216 807.7834,-216 807.7834,-252"/>
<text text-anchor="middle" x="682.8274" y="-229.8" font-family="Times,serif" font-size="14.00" fill="#000000">DeliverySucceeded&lt;DeliverySucceeded&gt;</text>
</g>
<!-- 10&#45;&gt;22 -->
<g id="edge21" class="edge">
<title>10-&gt;22</title>
<path fill="none" stroke="#000000" d="M564.1636,-289.8418C585.1486,-279.9665 612.2895,-267.1943 635.3174,-256.3577"/>
<polygon fill="#000000" stroke="#000000" points="637.0166,-259.4263 644.5745,-252.0014 634.036,-253.0925 637.0166,-259.4263"/>
</g>
<!-- 11 -->
<g id="node12" class="node">
<title>11</title>
<ellipse fill="none" stroke="#000000" cx="718.8274" cy="-162" rx="53.3302" ry="18"/>
<text text-anchor="middle" x="718.8274" y="-157.8" font-family="Times,serif" font-size="14.00" fill="#000000">Completed</text>
</g>
<!-- 11&#45;&gt;18 -->
<g id="edge23" class="edge">
<title>11-&gt;18</title>
<path fill="none" stroke="#000000" d="M763.5381,-152.0643C811.8842,-141.3207 890.2686,-123.902 951.7093,-110.2485"/>
<polygon fill="#000000" stroke="#000000" points="952.8023,-113.591 961.8049,-108.005 951.2837,-106.7577 952.8023,-113.591"/>
</g>
<!-- 12 -->
<g id="node13" class="node">
<title>12</title>
<ellipse fill="none" stroke="#000000" cx="803.8274" cy="-306" rx="89.7672" ry="18"/>
<text text-anchor="middle" x="803.8274" y="-301.8" font-family="Times,serif" font-size="14.00" fill="#000000">BookDeliveryFailed</text>
</g>
<!-- 12&#45;&gt;18 -->
<g id="edge24" class="edge">
<title>12-&gt;18</title>
<path fill="none" stroke="#000000" d="M811.1178,-287.8736C819.5471,-268.4998 834.8623,-237.6539 854.8274,-216 895.8072,-171.5538 955.4392,-135.0188 996.499,-112.9409"/>
<polygon fill="#000000" stroke="#000000" points="998.2824,-115.9569 1005.4803,-108.1825 995.0053,-109.7714 998.2824,-115.9569"/>
</g>
<!-- 13&#45;&gt;1 -->
<g id="edge25" class="edge">
<title>13-&gt;1</title>
<path fill="none" stroke="#000000" d="M1429.8274,-935.8314C1429.8274,-928.131 1429.8274,-918.9743 1429.8274,-910.4166"/>
<polygon fill="#000000" stroke="#000000" points="1433.3275,-910.4132 1429.8274,-900.4133 1426.3275,-910.4133 1433.3275,-910.4132"/>
</g>
<!-- 14&#45;&gt;10 -->
<g id="edge26" class="edge">
<title>14-&gt;10</title>
<path fill="none" stroke="#000000" d="M304.3939,-359.9243C354.4686,-347.9463 419.4022,-332.414 466.7106,-321.0977"/>
<polygon fill="#000000" stroke="#000000" points="467.6151,-324.4802 476.5265,-318.7497 465.9866,-317.6722 467.6151,-324.4802"/>
</g>
<!-- 15&#45;&gt;8 -->
<g id="edge28" class="edge">
<title>15-&gt;8</title>
<path fill="none" stroke="#000000" d="M667.6636,-359.9498C737.0848,-349.7976 824.7914,-336.6532 902.8274,-324 910.662,-322.7296 918.825,-321.3682 926.9756,-319.9838"/>
<polygon fill="#000000" stroke="#000000" points="927.6217,-323.4242 936.8884,-318.2883 926.4415,-316.5244 927.6217,-323.4242"/>
</g>
<!-- 15&#45;&gt;12 -->
<g id="edge27" class="edge">
<title>15-&gt;12</title>
<path fill="none" stroke="#000000" d="M607.6029,-359.9243C648.4931,-348.6873 700.7661,-334.3222 741.0765,-323.2445"/>
<polygon fill="#000000" stroke="#000000" points="742.0755,-326.5998 750.7906,-320.575 740.2206,-319.8501 742.0755,-326.5998"/>
</g>
<!-- 16&#45;&gt;2 -->
<g id="edge29" class="edge">
<title>16-&gt;2</title>
<path fill="none" stroke="#000000" d="M1283.304,-647.8314C1282.2345,-640.131 1280.9627,-630.9743 1279.7742,-622.4166"/>
<polygon fill="#000000" stroke="#000000" points="1283.2273,-621.8367 1278.3848,-612.4133 1276.2939,-622.7997 1283.2273,-621.8367"/>
</g>
<!-- 17&#45;&gt;3 -->
<g id="edge30" class="edge">
<title>17-&gt;3</title>
<path fill="none" stroke="#000000" d="M1466.8301,-791.8024C1481.5384,-782.8734 1497.4052,-770.8193 1507.8274,-756 1531.6421,-722.1379 1531.8274,-707.3978 1531.8274,-666 1531.8274,-666 1531.8274,-666 1531.8274,-162 1531.8274,-73.2482 1231.6668,-35.1743 1101.6793,-22.8472"/>
<polygon fill="#000000" stroke="#000000" points="1101.7833,-19.3419 1091.5024,-21.9018 1101.1357,-26.3118 1101.7833,-19.3419"/>
</g>
<!-- 17&#45;&gt;4 -->
<g id="edge31" class="edge">
<title>17-&gt;4</title>
<path fill="none" stroke="#000000" d="M1423.875,-791.8314C1423.1246,-784.131 1422.9037,-774.9743 1423.2123,-766.4166"/>
<polygon fill="#000000" stroke="#000000" points="1426.7066,-766.6161 1423.8514,-756.4133 1419.7209,-766.1697 1426.7066,-766.6161"/>
</g>
<!-- 18&#45;&gt;3 -->
<g id="edge32" class="edge">
<title>18-&gt;3</title>
<path fill="none" stroke="#000000" d="M1036.875,-71.8314C1036.1131,-64.0125 1035.897,-54.6923 1036.2269,-46.0221"/>
<polygon fill="#000000" stroke="#000000" points="1039.7278,-46.1239 1036.9001,-35.9134 1032.7433,-45.6587 1039.7278,-46.1239"/>
</g>
<!-- 19&#45;&gt;5 -->
<g id="edge33" class="edge">
<title>19-&gt;5</title>
<path fill="none" stroke="#000000" d="M365.4447,-503.9243C302.2691,-491.428 219.5361,-475.0633 161.8516,-463.6531"/>
<polygon fill="#000000" stroke="#000000" points="162.2309,-460.1604 151.7418,-461.6534 160.8725,-467.0274 162.2309,-460.1604"/>
</g>
<!-- 19&#45;&gt;6 -->
<g id="edge34" class="edge">
<title>19-&gt;6</title>
<path fill="none" stroke="#000000" d="M456.8274,-503.8314C456.8274,-496.131 456.8274,-486.9743 456.8274,-478.4166"/>
<polygon fill="#000000" stroke="#000000" points="460.3275,-478.4132 456.8274,-468.4133 453.3275,-478.4133 460.3275,-478.4132"/>
</g>
<!-- 20&#45;&gt;7 -->
<g id="edge35" class="edge">
<title>20-&gt;7</title>
<path fill="none" stroke="#000000" d="M1250.8274,-359.7623C1250.8274,-335.201 1250.8274,-291.2474 1250.8274,-262.3541"/>
<polygon fill="#000000" stroke="#000000" points="1254.3275,-262.0896 1250.8274,-252.0896 1247.3275,-262.0897 1254.3275,-262.0896"/>
</g>
<!-- 20&#45;&gt;8 -->
<g id="edge36" class="edge">
<title>20-&gt;8</title>
<path fill="none" stroke="#000000" d="M1189.3198,-359.9243C1151.9759,-348.9498 1104.4792,-334.9916 1067.1661,-324.026"/>
<polygon fill="#000000" stroke="#000000" points="1068.0026,-320.6239 1057.4214,-321.1623 1066.0288,-327.3399 1068.0026,-320.6239"/>
</g>
<!-- 21&#45;&gt;9 -->
<g id="edge37" class="edge">
<title>21-&gt;9</title>
<path fill="none" stroke="#000000" d="M982.4071,-215.8314C986.221,-207.7547 990.7915,-198.0761 994.9987,-189.1668"/>
<polygon fill="#000000" stroke="#000000" points="998.2631,-190.4504 999.3683,-179.9134 991.9333,-187.4614 998.2631,-190.4504"/>
</g>
<!-- 22&#45;&gt;11 -->
<g id="edge38" class="edge">
<title>22-&gt;11</title>
<path fill="none" stroke="#000000" d="M691.9117,-215.8314C695.993,-207.6688 700.8924,-197.87 705.3861,-188.8827"/>
<polygon fill="#000000" stroke="#000000" points="708.529,-190.423 709.8707,-179.9134 702.268,-187.2924 708.529,-190.423"/>
</g>
<!-- 23&#45;&gt;8 -->
<g id="edge40" class="edge">
<title>23-&gt;8</title>
<path fill="none" stroke="#000000" d="M910.1272,-359.8314C927.1553,-350.253 948.1889,-338.4217 966.1966,-328.2923"/>
<polygon fill="#000000" stroke="#000000" points="968.3005,-331.1246 975.3004,-323.1715 964.8687,-325.0236 968.3005,-331.1246"/>
</g>
<!-- 23&#45;&gt;12 -->
<g id="edge39" class="edge">
<title>23-&gt;12</title>
<path fill="none" stroke="#000000" d="M859.1541,-359.8314C850.0784,-351.001 839.0346,-340.2556 829.2078,-330.6944"/>
<polygon fill="#000000" stroke="#000000" points="831.5912,-328.1301 821.9831,-323.665 826.7097,-333.1472 831.5912,-328.1301"/>
</g>
</g>
</svg>